/* XPM */
static char *a06d43ccdf1746f8fa5f6afc81416343[] = {
/* columns rows colors chars-per-pixel */
"20 20 39 1 ",
"  c gray13",
". c #232323",
"X c gray14",
"o c #252525",
"O c #272727",
"+ c #282828",
"@ c gray16",
"# c #2A2A2A",
"$ c #2C2C2C",
"% c gray18",
"& c #2F2F2F",
"* c #323232",
"= c gray20",
"- c gray22",
"; c #393939",
": c #3A3A3A",
"> c gray23",
", c #3C3C3C",
"< c gray24",
"1 c #3F3F3F",
"2 c gray25",
"3 c #414141",
"4 c gray26",
"5 c #484848",
"6 c gray29",
"7 c gray30",
"8 c gray31",
"9 c #505050",
"0 c #515151",
"q c gray32",
"w c #585858",
"e c gray35",
"r c #5A5A5A",
"t c gray37",
"y c #606060",
"u c gray38",
"i c #646464",
"p c gray42",
"a c None",
/* pixels */
"aaaaaaaaaaaaaaaaaaaa",
"aaaaaaaaaaaaaaaaaaaa",
"aaaaaaaaaaaaaaaaaaaa",
"aaaaaaaaaaaaaaaaaaaa",
"aaaaaaaaaaaaa88*aaaa",
"aaaaaaaaaaaart:Xaaaa",
"aaaaaaaXaa+a2:+%aaaa",
"aaaaaaaa.arr%X<aaaaa",
"aaaaaaaaa0u:X%aaaaaa",
"aaaaaX..:r:X<%aaaaaa",
"aaaaaa22%*X<:aXaaaaa",
"aaaaa0pt%.*aXaaaaaaa",
"aaaaaiu:++XaaXaaaaaa",
"aaaaa0:+62.aaaaaaaaa",
"aaaaa+X6raaaaaaaaaaa",
"aaaaaa*aaaaaaaaaaaaa",
"aaaaaaaaaaaaaaaaaaaa",
"aaaaaaaaaaaaaaaaaaaa",
"aaaaaaaaaaaaaaaaaaaa",
"aaaaaaaaaaaaaaaaaaaa"
};
